<svg viewBox="0 0 135 135" fill="none" xmlns="http://www.w3.org/2000/svg">
<rect width="135" height="135" rx="67.5" fill="white"/>
<path d="M122.5 98.0187C118.499 99.0462 116.025 98.063 113.805 94.6972C108.821 87.1595 103.32 79.9672 98.0117 72.6421C97.3273 71.6944 96.6166 70.7644 95.7304 69.5863C89.4482 78.1426 83.1748 86.2914 77.2874 94.768C75.1817 97.7973 72.9706 99.117 69.0398 98.0453L92.6595 66.0434L70.6718 37.1415C74.4534 36.3975 77.0681 36.7784 79.3844 40.1974C84.4997 47.7439 90.1414 54.9273 95.7655 62.5269C101.425 54.9538 106.996 47.7616 112.261 40.2859C114.375 37.2567 116.648 36.1052 120.447 37.2213C117.569 41.0742 114.753 44.8652 111.919 48.6296C108.093 53.7049 104.338 58.8423 100.372 63.8113C98.9593 65.5828 99.1874 66.7342 100.451 68.4083C107.786 78.1426 115.033 87.9744 122.5 98.0187ZM12.5263 65.5119C13.1581 62.3144 13.5792 59.0548 14.4566 55.9193C19.721 36.9378 41.3051 29.0458 56.1332 40.8085C64.8195 47.7085 66.9779 57.4339 66.548 68.3994H17.5889C16.8519 88.0718 30.8816 99.9496 48.7631 93.8911C55.0365 91.7653 58.7304 86.8052 60.5817 80.605C61.5205 77.496 63.0735 77.0089 65.9689 77.8946C64.4861 85.6537 61.1257 92.1374 54.1064 96.1941C43.5776 102.27 28.5477 100.304 20.6423 91.8628C15.9745 86.9026 13.9916 80.729 13.1142 74.0593C12.9826 72.9964 12.7106 71.9513 12.5 70.8972C12.5175 69.1021 12.5263 67.307 12.5263 65.5119ZM17.6767 64.1921H61.9241C61.6346 49.9671 52.8605 39.8608 40.8664 39.7722C27.7054 39.6659 18.247 49.5331 17.6767 64.1921Z" fill="black"/>
</svg>
